<svg xmlns="http://www.w3.org/2000/svg" xmlns:xlink="http://www.w3.org/1999/xlink" version="1.1" width="256" height="256" viewBox="0 0 256 256" xml:space="preserve">

<defs>
</defs>
<g style="stroke: none; stroke-width: 0; stroke-dasharray: none; stroke-linecap: butt; stroke-linejoin: miter; stroke-miterlimit: 10; fill: none; fill-rule: nonzero; opacity: 1;" transform="translate(0 -2.842170943040401e-14) scale(2.81 2.81)" >
	<circle cx="45" cy="45" r="45" style="stroke: none; stroke-width: 1; stroke-dasharray: none; stroke-linecap: butt; stroke-linejoin: miter; stroke-miterlimit: 10; fill: rgb(0,0,0); fill-rule: nonzero; opacity: 1;" transform="  matrix(1 0 0 1 0 0) "/>
</g>
<g style="stroke: none; stroke-width: 0; stroke-dasharray: none; stroke-linecap: butt; stroke-linejoin: miter; stroke-miterlimit: 10; fill: none; fill-rule: nonzero; opacity: 1;" transform="translate(41.722334004024134 41.722334004024106) scale(1.92 1.92)" >
	<path d="M 81.417 58.756 V 34.724 l -4.281 1.407 v 22.626 c -1.93 0.833 -3.286 2.752 -3.286 4.983 s 1.356 4.15 3.286 4.983 v 8.536 c 0 1.182 0.958 2.14 2.14 2.14 s 2.14 -0.958 2.14 -2.14 v -8.535 c 1.93 -0.832 3.287 -2.751 3.287 -4.983 C 84.704 61.508 83.347 59.588 81.417 58.756 z" style="stroke: none; stroke-width: 1; stroke-dasharray: none; stroke-linecap: butt; stroke-linejoin: miter; stroke-miterlimit: 10; fill: rgb(255,255,255); fill-rule: nonzero; opacity: 1;" transform=" matrix(1 0 0 1 0 0) " stroke-linecap="round" />
	<path d="M 45 45.956 c -1.716 0 -3.432 -0.274 -5.1 -0.821 L 21.018 38.93 v 17.436 c 0 1.013 0.7 1.917 1.703 2.2 c 14.783 4.17 29.775 4.171 44.559 0 c 1.002 -0.283 1.702 -1.188 1.702 -2.2 V 38.93 l -18.884 6.205 C 48.431 45.682 46.716 45.956 45 45.956 z" style="stroke: none; stroke-width: 1; stroke-dasharray: none; stroke-linecap: butt; stroke-linejoin: miter; stroke-miterlimit: 10; fill: rgb(255,255,255); fill-rule: nonzero; opacity: 1;" transform=" matrix(1 0 0 1 0 0) " stroke-linecap="round" />
	<path d="M 88.589 24.19 L 49.386 11.309 c -2.871 -0.943 -5.904 -0.943 -8.772 0 L 1.411 24.19 c -1.881 0.618 -1.881 3.278 0 3.896 l 39.203 12.881 c 2.869 0.942 5.901 0.943 8.772 0 l 39.203 -12.881 C 90.47 27.469 90.47 24.808 88.589 24.19 z" style="stroke: none; stroke-width: 1; stroke-dasharray: none; stroke-linecap: butt; stroke-linejoin: miter; stroke-miterlimit: 10; fill: rgb(255,255,255); fill-rule: nonzero; opacity: 1;" transform=" matrix(1 0 0 1 0 0) " stroke-linecap="round" />
</g>
</svg>