<svg xmlns="http://www.w3.org/2000/svg" xmlns:xlink="http://www.w3.org/1999/xlink" version="1.1" width="256" height="256" viewBox="0 0 256 256" xml:space="preserve">

<defs>
</defs>
<g style="stroke: none; stroke-width: 0; stroke-dasharray: none; stroke-linecap: butt; stroke-linejoin: miter; stroke-miterlimit: 10; fill: none; fill-rule: nonzero; opacity: 1;" transform="translate(0 -2.842170943040401e-14) scale(2.81 2.81)" >
	<circle cx="45" cy="45" r="45" style="stroke: none; stroke-width: 1; stroke-dasharray: none; stroke-linecap: butt; stroke-linejoin: miter; stroke-miterlimit: 10; fill: rgb(0,0,0); fill-rule: nonzero; opacity: 1;" transform="  matrix(1 0 0 1 0 0) "/>
</g>
<g style="stroke: none; stroke-width: 0; stroke-dasharray: none; stroke-linecap: butt; stroke-linejoin: miter; stroke-miterlimit: 10; fill: none; fill-rule: nonzero; opacity: 1;" transform="translate(50.63736263736263 40.7317752669865) scale(1.72 1.72)" >
	<path d="M 89 70.092 H 60.667 V 47.03 c 0 -0.552 -0.447 -1 -1 -1 H 30.333 c -0.552 0 -1 0.448 -1 1 v 14.531 H 1 c -0.552 0 -1 0.447 -1 1 v 21.797 c 0 0.553 0.448 1 1 1 h 58.667 H 89 c 0.553 0 1 -0.447 1 -1 V 71.092 C 90 70.54 89.553 70.092 89 70.092 z M 48.296 71.046 H 45 h -3.296 c -1.104 0 -2 -0.896 -2 -2 s 0.896 -2 2 -2 H 43 v -9.009 l -0.217 0.139 c -0.931 0.598 -2.167 0.324 -2.763 -0.604 c -0.596 -0.93 -0.325 -2.167 0.605 -2.763 l 3.296 -2.112 c 0.616 -0.396 1.397 -0.422 2.039 -0.071 S 47 53.649 47 54.38 v 12.666 h 1.296 c 1.104 0 2 0.896 2 2 S 49.4 71.046 48.296 71.046 z" style="stroke: none; stroke-width: 1; stroke-dasharray: none; stroke-linecap: butt; stroke-linejoin: miter; stroke-miterlimit: 10; fill: rgb(255,255,255); fill-rule: nonzero; opacity: 1;" transform=" matrix(1 0 0 1 0 0) " stroke-linecap="round" />
	<path d="M 53.717 36.279 c -0.382 0 -0.764 -0.118 -1.1 -0.354 l -6.978 -4.914 c -0.383 -0.271 -0.897 -0.27 -1.278 0 h 0 l -6.978 4.914 c -0.682 0.48 -1.557 0.472 -2.229 -0.022 c -0.672 -0.494 -0.942 -1.326 -0.687 -2.12 l 2.593 -8.093 c 0.146 -0.455 -0.015 -0.95 -0.399 -1.233 l -6.741 -4.96 c -0.676 -0.499 -0.944 -1.336 -0.682 -2.134 c 0.262 -0.797 0.974 -1.313 1.813 -1.313 h 8.333 c 0.477 0 0.9 -0.304 1.053 -0.757 l 2.754 -8.195 C 43.456 6.307 44.167 5.797 45 5.797 s 1.544 0.51 1.81 1.301 l 2.755 8.195 c 0.151 0.453 0.574 0.757 1.052 0.757 h 8.333 c 0.84 0 1.551 0.515 1.813 1.313 c 0.262 0.797 -0.005 1.635 -0.681 2.133 l -6.742 4.961 c -0.385 0.283 -0.545 0.778 -0.399 1.233 l 2.593 8.092 c 0.255 0.794 -0.015 1.626 -0.687 2.121 C 54.505 36.153 54.111 36.279 53.717 36.279 z M 43.785 30.193 h 0.01 H 43.785 z" style="stroke: none; stroke-width: 1; stroke-dasharray: none; stroke-linecap: butt; stroke-linejoin: miter; stroke-miterlimit: 10; fill: rgb(255,255,255); fill-rule: nonzero; opacity: 1;" transform=" matrix(1 0 0 1 0 0) " stroke-linecap="round" />
	<path d="M 63.963 31.114 c -0.214 0 -0.431 -0.035 -0.645 -0.107 l -4.165 -1.418 c -1.046 -0.356 -1.604 -1.492 -1.249 -2.538 c 0.355 -1.046 1.491 -1.606 2.538 -1.249 l 4.165 1.418 c 1.046 0.356 1.604 1.492 1.249 2.538 C 65.573 30.59 64.796 31.114 63.963 31.114 z" style="stroke: none; stroke-width: 1; stroke-dasharray: none; stroke-linecap: butt; stroke-linejoin: miter; stroke-miterlimit: 10; fill: rgb(255,255,255); fill-rule: nonzero; opacity: 1;" transform=" matrix(1 0 0 1 0 0) " stroke-linecap="round" />
	<path d="M 53.998 12.513 c -0.424 0 -0.852 -0.134 -1.214 -0.412 c -0.878 -0.671 -1.045 -1.926 -0.374 -2.803 l 2.96 -3.87 c 0.671 -0.878 1.928 -1.045 2.804 -0.374 c 0.878 0.671 1.045 1.926 0.374 2.803 l -2.96 3.87 C 55.194 12.243 54.599 12.513 53.998 12.513 z" style="stroke: none; stroke-width: 1; stroke-dasharray: none; stroke-linecap: butt; stroke-linejoin: miter; stroke-miterlimit: 10; fill: rgb(255,255,255); fill-rule: nonzero; opacity: 1;" transform=" matrix(1 0 0 1 0 0) " stroke-linecap="round" />
	<path d="M 36.002 12.513 c -0.602 0 -1.196 -0.27 -1.59 -0.785 l -2.959 -3.87 c -0.671 -0.877 -0.503 -2.133 0.374 -2.804 c 0.877 -0.67 2.133 -0.504 2.804 0.374 l 2.959 3.87 c 0.671 0.877 0.503 2.133 -0.374 2.804 C 36.854 12.379 36.426 12.513 36.002 12.513 z" style="stroke: none; stroke-width: 1; stroke-dasharray: none; stroke-linecap: butt; stroke-linejoin: miter; stroke-miterlimit: 10; fill: rgb(255,255,255); fill-rule: nonzero; opacity: 1;" transform=" matrix(1 0 0 1 0 0) " stroke-linecap="round" />
	<path d="M 26.038 31.114 c -0.833 0 -1.61 -0.523 -1.893 -1.355 c -0.356 -1.046 0.203 -2.182 1.248 -2.538 l 4.164 -1.418 c 1.045 -0.356 2.182 0.202 2.538 1.248 c 0.356 1.046 -0.203 2.182 -1.248 2.538 l -4.164 1.418 C 26.469 31.079 26.251 31.114 26.038 31.114 z" style="stroke: none; stroke-width: 1; stroke-dasharray: none; stroke-linecap: butt; stroke-linejoin: miter; stroke-miterlimit: 10; fill: rgb(255,255,255); fill-rule: nonzero; opacity: 1;" transform=" matrix(1 0 0 1 0 0) " stroke-linecap="round" />
	<path d="M 45 43.446 c -1.104 0 -2 -0.896 -2 -2 v -3.849 c 0 -1.104 0.896 -2 2 -2 s 2 0.896 2 2 v 3.849 C 47 42.55 46.104 43.446 45 43.446 z" style="stroke: none; stroke-width: 1; stroke-dasharray: none; stroke-linecap: butt; stroke-linejoin: miter; stroke-miterlimit: 10; fill: rgb(255,255,255); fill-rule: nonzero; opacity: 1;" transform=" matrix(1 0 0 1 0 0) " stroke-linecap="round" />
</g>
</svg>